<?xml version="1.0" encoding="UTF-8"?>
<!DOCTYPE svg PUBLIC "-//W3C//DTD SVG 1.1//EN" "http://www.w3.org/Graphics/SVG/1.1/DTD/svg11.dtd">
<svg xmlns="http://www.w3.org/2000/svg" version="1.1" width="510px" height="510px" style="shape-rendering:geometricPrecision; text-rendering:geometricPrecision; image-rendering:optimizeQuality; fill-rule:evenodd; clip-rule:evenodd" xmlns:xlink="http://www.w3.org/1999/xlink">
<g><path style="opacity:1" fill="#6a129d" d="M -0.5,-0.5 C 169.5,-0.5 339.5,-0.5 509.5,-0.5C 509.5,169.5 509.5,339.5 509.5,509.5C 339.5,509.5 169.5,509.5 -0.5,509.5C -0.5,339.5 -0.5,169.5 -0.5,-0.5 Z"/></g>
<g><path style="opacity:1" fill="#fbedfd" d="M 209.5,152.5 C 239.507,152.167 269.507,152.5 299.5,153.5C 286.293,176.748 272.96,199.915 259.5,223C 262.882,223.824 266.216,223.657 269.5,222.5C 268.572,221.232 268.405,219.899 269,218.5C 270.752,215.328 272.752,212.328 275,209.5C 279.833,217.833 284.667,226.167 289.5,234.5C 272.833,235.833 256.167,235.833 239.5,234.5C 252.788,210.754 266.455,187.254 280.5,164C 258.492,163.833 236.492,163.333 214.5,162.5C 212.295,159.423 210.628,156.09 209.5,152.5 Z"/></g>
<g><path style="opacity:1" fill="#d7b6e6" d="M 268.5,171.5 C 252.342,170.504 236.009,170.17 219.5,170.5C 226.923,169.819 235.09,169.485 244,169.5C 252.5,169.833 261,170.167 269.5,170.5C 269.376,171.107 269.043,171.44 268.5,171.5 Z"/></g>
<g><path style="opacity:1" fill="#f9eafc" d="M 219.5,170.5 C 236.009,170.17 252.342,170.504 268.5,171.5C 255.794,195.037 242.46,218.203 228.5,241C 250.167,241.333 271.833,241.667 293.5,242C 295.879,245.256 297.879,248.756 299.5,252.5C 269.172,253.667 238.839,253.833 208.5,253C 222.04,229.418 235.707,205.918 249.5,182.5C 245.878,181.341 242.211,181.175 238.5,182C 239.574,182.739 240.241,183.739 240.5,185C 238.467,188.898 236.3,192.732 234,196.5C 228.901,187.967 224.068,179.301 219.5,170.5 Z"/></g>
<g><path style="opacity:1" fill="#e25efc" d="M 164.5,265.5 C 176.505,265.333 188.505,265.5 200.5,266C 193.375,277.082 186.375,288.249 179.5,299.5C 186.134,300.497 192.8,300.83 199.5,300.5C 199.5,303.5 199.5,306.5 199.5,309.5C 186.816,309.832 174.149,309.499 161.5,308.5C 168.375,297.249 175.375,286.082 182.5,275C 176.509,274.501 170.509,274.334 164.5,274.5C 164.5,271.5 164.5,268.5 164.5,265.5 Z"/></g>
<g><path style="opacity:1" fill="#e35efd" d="M 204.5,265.5 C 212.833,265.5 221.167,265.5 229.5,265.5C 229.5,268.167 229.5,270.833 229.5,273.5C 224.5,273.5 219.5,273.5 214.5,273.5C 214.5,276.833 214.5,280.167 214.5,283.5C 219.5,283.5 224.5,283.5 229.5,283.5C 229.5,286.167 229.5,288.833 229.5,291.5C 224.5,291.5 219.5,291.5 214.5,291.5C 214.5,294.5 214.5,297.5 214.5,300.5C 219.833,300.5 225.167,300.5 230.5,300.5C 230.5,303.5 230.5,306.5 230.5,309.5C 221.833,309.5 213.167,309.5 204.5,309.5C 204.5,294.833 204.5,280.167 204.5,265.5 Z"/></g>
<g><path style="opacity:1" fill="#e35efd" d="M 235.5,265.5 C 243.174,265.334 250.841,265.5 258.5,266C 266.16,269.841 268.66,276.008 266,284.5C 264.737,288.219 262.237,290.719 258.5,292C 254.179,292.499 249.846,292.666 245.5,292.5C 245.5,298.167 245.5,303.833 245.5,309.5C 242.167,309.5 238.833,309.5 235.5,309.5C 235.5,294.833 235.5,280.167 235.5,265.5 Z"/></g>
<g><path style="opacity:1" fill="#e35efc" d="M 281.5,265.5 C 281.5,271.5 281.5,277.5 281.5,283.5C 286.5,283.5 291.5,283.5 296.5,283.5C 296.5,277.5 296.5,271.5 296.5,265.5C 299.833,265.5 303.167,265.5 306.5,265.5C 306.5,280.167 306.5,294.833 306.5,309.5C 303.167,309.5 299.833,309.5 296.5,309.5C 296.5,303.5 296.5,297.5 296.5,291.5C 291.5,291.5 286.5,291.5 281.5,291.5C 281.5,297.5 281.5,303.5 281.5,309.5C 278.167,309.5 274.833,309.5 271.5,309.5C 271.5,294.833 271.5,280.167 271.5,265.5C 274.833,265.5 278.167,265.5 281.5,265.5 Z"/></g>
<g><path style="opacity:1" fill="#a336ca" d="M 281.5,265.5 C 282.489,270.975 282.822,276.642 282.5,282.5C 286.833,282.5 291.167,282.5 295.5,282.5C 295.178,276.642 295.511,270.975 296.5,265.5C 296.5,271.5 296.5,277.5 296.5,283.5C 291.5,283.5 286.5,283.5 281.5,283.5C 281.5,277.5 281.5,271.5 281.5,265.5 Z"/></g>
<g><path style="opacity:1" fill="#e15dfb" d="M 308.5,265.5 C 312.555,265.176 316.555,265.509 320.5,266.5C 323.088,270.676 325.921,274.676 329,278.5C 332.079,274.676 334.912,270.676 337.5,266.5C 341.5,265.167 345.5,265.167 349.5,266.5C 344.47,273.698 339.637,281.031 335,288.5C 334.5,295.492 334.334,302.492 334.5,309.5C 330.833,309.5 327.167,309.5 323.5,309.5C 323.666,302.492 323.5,295.492 323,288.5C 317.916,280.932 313.083,273.265 308.5,265.5 Z"/></g>
<g><path style="opacity:1" fill="#a739cd" d="M 204.5,265.5 C 212.984,264.507 221.651,264.174 230.5,264.5C 230.5,267.833 230.5,271.167 230.5,274.5C 225.5,274.5 220.5,274.5 215.5,274.5C 215.5,277.167 215.5,279.833 215.5,282.5C 220.363,282.181 225.03,282.514 229.5,283.5C 224.5,283.5 219.5,283.5 214.5,283.5C 214.5,280.167 214.5,276.833 214.5,273.5C 219.5,273.5 224.5,273.5 229.5,273.5C 229.5,270.833 229.5,268.167 229.5,265.5C 221.167,265.5 212.833,265.5 204.5,265.5 Z"/></g>
<g><path style="opacity:1" fill="#7217a3" d="M 245.5,273.5 C 249.516,272.9 253.016,273.9 256,276.5C 256.218,283.434 252.718,286.434 245.5,285.5C 245.5,281.5 245.5,277.5 245.5,273.5 Z"/></g>
</svg>
